<?xml version="1.0" encoding="UTF-8" standalone="no"?>
<svg
   xmlns:dc="http://purl.org/dc/elements/1.1/"
   xmlns:cc="http://creativecommons.org/ns#"
   xmlns:rdf="http://www.w3.org/1999/02/22-rdf-syntax-ns#"
   xmlns:svg="http://www.w3.org/2000/svg"
   xmlns="http://www.w3.org/2000/svg"
   viewBox="0 0 252.00598 242.1897"
   height="64.079361mm"
   width="66.67659mm"
   id="svg1390"
   version="1.1">
  <metadata
     id="metadata1396">
    <rdf:RDF>
      <cc:Work
         rdf:about="">
        <dc:format>image/svg+xml</dc:format>
        <dc:type
           rdf:resource="http://purl.org/dc/dcmitype/StillImage" />
        <dc:title></dc:title>
      </cc:Work>
    </rdf:RDF>
  </metadata>
  <defs
     id="defs1394" />
  <path
     id="path1400"
     d="m 114.30072,239.7448 c -1.03948,-2.7926 -2.69913,-9.1313 -2.69529,-10.2942 0.002,-0.4893 0.76227,-0.8189 2.0418,-0.8847 1.12156,-0.058 3.49738,-0.9279 5.27959,-1.9337 3.10968,-1.755 3.27226,-1.7855 4.03066,-0.758 0.49974,0.6771 0.66263,1.7609 0.44308,2.9479 -0.25603,1.3842 -0.11633,1.9657 0.53194,2.2145 1.03314,0.3965 2.04441,3.6658 2.04895,6.6241 l 0.003,2.0866 -4.86899,1.2212 c -2.67795,0.6716 -5.10207,1.2212 -5.38693,1.2212 -0.28487,0 -0.92748,-1.1002 -1.42801,-2.4449 z m 35.40542,-12.656 c -0.31947,-0.3955 -1.25722,-2.4221 -2.08389,-4.5035 -1.51998,-3.827 -1.89701,-8.7193 -0.99405,-12.8985 l 0.37287,-1.7258 3.72979,0.2197 c 2.05138,0.1209 4.63211,0.2503 5.73496,0.2876 2.704,0.092 3.65777,2.1214 3.68104,7.8341 0.0265,6.5134 -0.3302,7.3583 -3.46036,8.1955 -1.45159,0.3882 -3.27148,1.2918 -4.0442,2.0079 -1.60741,1.4897 -2.12133,1.5918 -2.93616,0.583 z m -39.31523,-2.8326 c -2.4807,-2.0475 -3.85982,-10.5601 -1.80824,-11.1613 0.5537,-0.1622 2.63594,-1.0942 4.62719,-2.0711 3.50106,-1.7176 3.6475,-1.7404 4.44007,-0.6937 0.45078,0.5954 0.82783,1.4538 0.8379,1.9076 0.0101,0.4538 0.55421,1.9322 1.20923,3.2852 0.65501,1.3531 1.10803,3.172 1.00672,4.0419 -0.37313,3.204 -7.94292,6.6476 -10.31287,4.6914 z m -4.68874,-16.6983 c -0.48468,-1.0439 -1.0573,-2.8041 -1.27249,-3.9115 -0.2152,-1.1074 -0.51158,-2.4436 -0.65863,-2.9695 -0.19395,-0.6935 0.21886,-1.0628 1.50333,-1.3449 0.97389,-0.2139 2.94661,-1.2865 4.38382,-2.3836 2.08146,-1.5888 2.77883,-1.8571 3.42761,-1.3186 0.92769,0.7699 2.54395,5.7953 2.54395,7.9097 0,2.1336 -3.35622,4.6921 -7.25572,5.5311 -1.61876,0.3483 -1.87522,0.2031 -2.67187,-1.5127 z m 43.49591,-2.6406 c -2.04197,-0.208 -2.48304,-1.1363 -2.49576,-5.2525 -0.005,-1.5582 0.35715,-2.9467 0.93445,-3.5846 0.74435,-0.8225 0.79758,-1.2157 0.25339,-1.8714 -0.42771,-0.5153 -0.54614,-1.5911 -0.31235,-2.8373 l 0.37656,-2.0073 3.25314,1.1403 c 2.0706,0.7258 4.14188,1.047 5.69805,0.8838 l 2.4449,-0.2565 v 4.5644 c 0,2.5104 -0.29277,5.7271 -0.6506,7.1482 l -0.65061,2.5837 -3.52012,-0.1631 c -1.93606,-0.09 -4.33504,-0.2462 -5.33105,-0.3477 z m -48.31831,-10.6191 c -0.53514,-1.0283 -1.318109,-3.5051 -1.739929,-5.5041 -0.87106,-4.1279 -0.37338,-5.8496 1.696889,-5.8701 0.70077,-0.01 2.36246,-0.5067 3.69265,-1.1106 l 2.41852,-1.098 1.10822,2.9802 c 1.4035,3.7743 2.02577,7.4689 1.52415,9.0494 -0.4181,1.3173 -4.33586,3.3894 -6.44791,3.4103 -0.86744,0.01 -1.59299,-0.5896 -2.25259,-1.8571 z m 52.92776,-6.7799 c -0.99201,-0.2104 -2.63929,-0.9775 -3.66062,-1.7048 -1.70973,-1.2174 -1.82996,-1.5093 -1.51646,-3.6816 0.59475,-4.1209 1.46039,-8.5361 1.72557,-8.8013 0.14094,-0.141 1.45478,0.1506 2.91964,0.648 1.46486,0.4973 3.41246,0.9042 4.328,0.9042 2.94972,0 3.64292,1.3377 3.34651,6.4579 -0.14373,2.483 -0.53082,4.784 -0.86019,5.1134 -0.92147,0.9215 -4.27576,1.4896 -6.28245,1.0642 z M 36.244121,179.7726 c -0.006,-0.3164 0.56517,-3.3782 1.26914,-6.8039 1.24158,-6.042 1.33655,-6.2524 3.16842,-7.0178 1.03866,-0.4339 1.88541,-0.8669 1.88165,-0.9622 -0.004,-0.095 -0.37554,-1.5585 -0.8262,-3.2516 -0.75292,-2.8287 -0.72569,-3.3817 0.33564,-6.8179 3.96704,-12.84379 13.05937,-25.77139 20.41383,-29.02459 2.7523,-1.2175 7.70066,-1.2866 8.86343,-0.1238 0.31488,0.3149 -0.0748,1.7813 -0.97705,3.6766 -0.82547,1.7341 -2.61525,5.871 -3.97729,9.1932 -2.65774,6.48259 -2.39387,6.2687 -6.71118,5.4407 -2.69236,-0.5164 -2.73956,0.028 -0.3024,3.48519 l 1.85487,2.6315 -1.32605,2.4997 c -0.72933,1.3748 -2.0769,3.219 -2.9946,4.0982 -1.47658,1.4146 -1.83837,1.5212 -3.14461,0.926 -2.3383,-1.0654 -2.5715,-0.8539 -2.58875,2.3476 -0.0162,3.0074 -0.0413,3.0484 -5.89654,9.6416 -3.23415,3.6418 -6.5893,7.5249 -7.45589,8.6291 -0.86659,1.1042 -1.58048,1.7488 -1.58642,1.4324 z m 59.0232,-0.7969 c -0.5378,-0.5942 -1.24218,-2.0379 -1.56528,-3.2081 -0.57305,-2.0754 -0.51236,-2.2078 2.47041,-5.3893 1.68183,-1.7939 3.22631,-3.3391 3.43217,-3.4337 1.165039,-0.5354 5.094959,8.242 5.094959,11.3795 0,1.4763 -1.41663,1.8306 -4.35797,1.0899 -1.876109,-0.4724 -2.753539,-0.4723 -3.322869,2e-4 -0.58757,0.4876 -1.00873,0.3822 -1.75142,-0.4385 z m 60.809869,-8.1469 c -1.3257,-0.262 -3.07309,-0.9106 -3.88309,-1.4413 -1.29678,-0.8497 -1.47272,-1.3592 -1.47272,-4.2646 0,-2.7995 0.85611,-6.923 1.43733,-6.923 0.0958,0 1.55902,0.6447 3.25154,1.4326 1.69252,0.7879 3.7892,1.4351 4.6593,1.4381 1.56134,0.01 1.582,0.054 1.582,3.7075 0,6.4635 -0.5368,7.0462 -5.57436,6.0507 z M 90.719961,167.786 c -0.48437,-0.7393 -1.68165,-3.1106 -2.66061,-5.2696 -1.67098,-3.6853 -1.7213,-3.9904 -0.82214,-4.984 0.52678,-0.5821 1.42533,-1.0583 1.99677,-1.0583 1.38554,0 3.24157,-2.0648 3.68959,-4.1047 0.64937,-2.9565 1.22282,-2.1349 4.04306,5.7928 l 1.3168,3.7015 -1.3835,2.7303 c -1.34382,2.6519 -3.26726,4.5361 -4.63055,4.5361 -0.3678,0 -1.06504,-0.6049 -1.54942,-1.3441 z m 65.754139,-11.169 -2.01345,-1.0058 -0.16555,-4.6514 c -0.20105,-5.6484 0.49329,-7.96439 2.22316,-7.41529 0.6566,0.2084 2.34143,0.3962 3.74407,0.4174 1.41182,0.021 2.84177,0.3898 3.2033,0.8255 0.80715,0.97249 0.67989,7.73139 -0.20109,10.67999 -0.58953,1.973 -0.82098,2.1572 -2.71077,2.1563 -1.13642,-5e-4 -2.97227,-0.4535 -4.07967,-1.0067 z m -72.484329,-1.919 c 0,-0.3441 -1.29436,-2.5973 -2.87636,-5.007 -3.29095,-5.01299 -3.60576,-6.77459 -1.36304,-7.62729 0.83232,-0.3164 2.23136,-1.0866 3.10898,-1.7116 2.28291,-1.6255 5.20668,-1.4825 6.91735,0.3384 1.15209,1.2263 1.4219,2.1994 1.60273,5.78019 0.25566,5.063 -0.58528,6.5518 -3.70078,6.5518 -1.38029,0 -1.98338,0.3082 -2.25069,1.1505 -0.38422,1.2105 -1.43819,1.5953 -1.43819,0.525 z m 50.623979,-14.32369 c -1.4238,-1.2424 -3.30786,-2.5634 -4.1868,-2.9356 -1.54347,-0.6537 -1.56647,-0.725 -0.67312,-2.0884 1.27379,-1.9441 0.77368,-2.1611 -2.13936,-0.9285 l -2.49272,1.0548 -3.49543,-1.7258 -3.49543,-1.7258 0.73694,-1.7258 c 0.74932,-1.7548 1.06047,-5.4651 0.45832,-5.4651 -0.18179,0 -2.2391,1.4364 -4.5718,3.1921 -3.85213,2.8992 -4.48201,3.1796 -6.86496,3.0562 -2.36485,-0.1224 -2.58609,-0.2528 -2.24266,-1.3224 0.89327,-2.7819 1.20026,-4.9259 0.70532,-4.9259 -0.29011,0 -2.61914,1.0517 -5.17564,2.3371 -4.218379,2.1209 -4.738269,2.2555 -5.622409,1.4554 -1.70869,-1.5464 -8.33352,-4.2519 -12.16876,-4.9697 -2.0405,-0.3818 -4.07577,-0.799 -4.52281,-0.927 -1.14121,-0.3267 11.64793,-9.0628 15.38962,-10.5124 4.88725,-1.8934 8.094519,-1.5969 14.636289,1.3532 3.09481,1.3956 6.9779,3.3907 8.62908,4.4336 4.4206,2.7918 11.14387,9.4478 13.98384,13.8438 2.23399,3.458 6.23703,10.8456 5.85332,10.8023 -0.0837,-0.01 -1.31703,-1.0337 -2.74083,-2.2761 z m 22.28032,0.4172 c -0.5603,-1.4601 0.29193,-8.259 1.33565,-10.6556 l 1.07327,-2.4644 3.72258,2.4644 c 2.97825,1.9716 3.7928,2.835 4.07371,4.318 0.48568,2.5639 -1.05206,5.5319 -2.60999,5.0374 -0.67856,-0.2154 -1.89927,0.1174 -3.05817,0.8336 -2.17802,1.3461 -4.1228,1.5461 -4.53705,0.4666 z m -81.323399,-2.5823 c -1.62761,-2.4 -1.81893,-3.1664 -1.22089,-4.891 0.73822,-2.1288 3.20728,-3.7877 5.94967,-3.9974 2.06731,-0.158 2.3347,-0.01 3.25798,1.8413 1.61393,3.2307 1.2992,5.212 -1.11944,7.0471 -1.27521,0.9675 -2.80551,1.582 -3.93978,1.582 -1.37965,0 -2.12944,-0.4052 -2.92754,-1.582 z M 0,135.96601 c 0,-1.6149 4.191502,-7.2887 9.903561,-13.4058 10.92032,-11.6947 16.17923,-14.3822 28.17854,-14.4005 4.43385,-0.01 6.55962,0.3005 10.35491,1.4967 10.30734,3.2488 21.97862,10.5644 20.01218,12.5437 -0.33907,0.3413 -3.73123,0.8804 -7.53814,1.1979 l -6.92165,0.5774 -2.04161,-3.8852 c -1.12288,-2.1369 -2.23532,-3.8852 -2.4721,-3.8852 -0.23677,0 -0.6035,1.1002 -0.81497,2.4449 -0.21147,1.3447 -0.62637,3.3545 -0.92201,4.4663 l -0.53753,2.0214 -4.18279,-0.01 -4.18279,-0.01 -1.58111,-2.8764 c -0.86961,-1.582 -1.88457,-3.8543 -2.25548,-5.0496 -0.3709,-1.1953 -0.94809,-2.082 -1.28265,-1.9705 -0.80158,0.2672 -2.0196,6.229 -2.05128,10.0403 -0.0206,2.4808 -0.20489,3.0213 -1.03182,3.0265 -0.5537,0 -1.93191,0.1594 -3.06268,0.3465 -2.01578,0.3334 -2.08883,0.2772 -3.73927,-2.8813 -0.92583,-1.7717 -1.9422,-3.1388 -2.2586,-3.0379 -0.3164,0.1008 -0.8125,1.7656 -1.10245,3.6994 -0.59257,3.9522 -0.0984,3.6336 -7.41839,4.7826 -2.97469,0.4669 -5.940503,1.432 -8.772903,2.855 C 1.925536,135.23441 0,136.09381 0,135.96181 Z m 165.10319,-7.739 c -0.791,-0.2987 -2.20157,-1.6209 -3.13459,-2.9382 -1.84037,-2.5983 -1.99182,-4.4114 -0.83083,-9.9467 0.98446,-4.6936 0.97959,-4.6901 2.88135,-2.1041 1.44481,1.9647 2.09693,2.3917 3.65212,2.3917 3.58654,0 3.83163,1.6744 1.3983,9.5527 -1.16115,3.7593 -1.46213,3.9904 -3.96635,3.0446 z m 55.89733,-3.0251 c -1.27271,-1.0634 -5.1803,-4.0741 -8.68351,-6.6906 -5.26308,-3.9309 -6.37084,-5.019 -6.37733,-6.2643 -0.0204,-3.9155 -1.0675,-4.6447 -3.57681,-2.4908 -0.83641,0.718 -1.15892,0.7321 -2.01345,0.088 -2.65227,-1.9982 -5.90734,-5.4794 -5.90734,-6.3177 0,-0.51331 0.63831,-2.19411 1.41846,-3.735108 0.78016,-1.541 1.30367,-2.9166 1.16338,-3.0569 -0.19958,-0.1996 -3.96819,1.0925 -6.08617,2.0867 -0.19015,0.089 -1.71789,-1.9817 -3.39499,-4.6022 -1.67709,-2.6204 -4.17617,-6.2558 -5.55351,-8.0787 -1.37734,-1.8228 -2.50425,-3.5635 -2.50425,-3.8683 0,-1.087 3.44562,-2.3094 6.50977,-2.3094 8.07122,0 20.01984,10.2398 27.2337,23.338898 1.85157,3.36211 2.19667,4.52711 2.20325,7.43811 0.008,3.3839 0.0439,3.4623 1.84798,3.9938 1.56719,0.4617 2.13777,1.1932 3.84635,4.931 2.01618,4.4106 3.03363,7.4705 2.48408,7.4705 -0.16257,0 -1.33689,-0.87 -2.60961,-1.9333 z M 66.443961,115.02811 c -2.21479,-2.6125 -6.29178,-7.3642 -9.05997,-10.5594 -3.14799,-3.63361 -5.21993,-6.563608 -5.53198,-7.822908 -0.27439,-1.1074 -0.72767,-3.0293 -1.00729,-4.2709 -0.27961,-1.2416 -0.77856,-2.3455 -1.10877,-2.4533 -0.33022,-0.1077 -1.17461,0.986 -1.87643,2.4306 l -1.27604,2.6265 -2.86898,-1.6114 c -2.65543,-1.4914 -2.86903,-1.7741 -2.86957,-3.7972 -5.8e-4,-2.1963 -1.34989,-5.5803 -2.22502,-5.5803 -0.25799,0 -1.17927,1.3048 -2.04729,2.8997 -1.13757,2.09 -1.84573,2.8205 -2.53634,2.616 -0.52696,-0.156 -1.67002,-0.4535 -2.54012,-0.661 -1.38445,-0.3302 -1.582,-0.6522 -1.582,-2.5786 0,-1.2107 -0.28158,-2.93 -0.62574,-3.8207 l -0.62575,-1.6194 -1.96298,2.2531 c -1.07964,1.2392 -1.96298,2.7277 -1.96298,3.3078 0,0.9511 -0.55457,1.0547 -5.64707,1.0547 -4.99632,0 -10.126776,0.5754 -13.624553,1.528 -1.777802,0.4842 12.147753,-7.7745 16.682903,-9.894 11.68236,-5.4598 22.46323,-3.7297 31.27808,5.0194 2.01388,1.9988 4.39496,4.6979 5.29129,5.9979 3.9273,5.696 12.44885,26.234108 11.93766,28.771408 -0.12078,0.5995 -1.56992,-0.7206 -4.21106,-3.836 z m 9.76477,1.7053 c -0.41604,-1.3108 2.28098,-6.8158 6.21974,-12.6953 2.66403,-3.97671 3.07898,-4.362108 3.89862,-3.62031 0.5045,0.4566 1.34595,0.8301 1.86989,0.8301 0.81736,0 0.90303,-0.4743 0.60342,-3.340798 l -0.34918,-3.3408 4.1578,-3.7947 c 3.92374,-3.5812 9.423369,-6.8991 12.694529,-7.6587 1.17109,-0.2719 1.6257,-0.044 2.25448,1.131 1.12877,2.1091 1.54691,1.838 1.95925,-1.2704 0.35782,-2.6973 0.41296,-2.7594 3.38193,-3.8091 3.81598,-1.3492 7.27853,-2.9569 11.58466,-5.3787 1.86397,-1.0483 3.46222,-1.8328 3.55167,-1.7434 0.48084,0.4809 -3.90678,7.9755 -6.53431,11.1615 -2.92264,3.5438 -3.09572,3.6571 -4.29873,2.8145 -0.68941,-0.4829 -1.68828,-0.878 -2.21972,-0.878 -0.8823,0 -0.89599,0.2334 -0.15766,2.6867 0.89262,2.966 0.56771,3.8934 -2.53165,7.2265 l -1.46153,1.5718 -2.1149,-2.2909 c -3.41575,-3.6999 -3.869,-3.2698 -3.79407,3.6004 l 0.0642,5.891308 -2.46008,0.8557 c -3.198689,1.1126 -4.063769,0.5491 -5.564389,-3.62411 -0.64499,-1.793798 -1.33311,-3.261398 -1.52915,-3.261398 -0.40154,0 -1.58741,5.603308 -1.80755,8.540908 -0.13257,1.7689 -0.42449,2.0418 -3.59591,3.3622 -1.8984,0.7904 -5.71002,2.9322 -8.47025,4.7595 -4.38486,2.9028 -5.06061,3.19 -5.35116,2.2745 z m -5.11504,-5.7125 c -0.85325,-3.6349 -1.84004,-8.64521 -2.19286,-11.134008 -0.62675,-4.4209 -0.6107,-4.5482 0.69788,-5.5353 0.8843,-0.667 1.21253,-1.3409 0.96602,-1.9832 -0.20535,-0.5352 -0.61618,-0.823 -0.91295,-0.6395 -1.07163,0.6623 -1.19123,-0.8384 -0.50183,-6.2966 0.68001,-5.384 0.75577,-5.5784 2.4495,-6.2864 0.96128,-0.4019 2.11187,-1.1697 2.55688,-1.7062 0.71537,-0.8626 0.59132,-1.2003 -1.07075,-2.9151 l -1.87984,-1.9395 1.58048,-4.7964 c 0.86927,-2.638 1.6598,-4.8893 1.75672,-5.003 0.0969,-0.1136 0.93226,0.3318 1.85629,0.9898 0.92403,0.6579 1.80367,1.0727 1.95476,0.9216 0.60902,-0.609 -0.60463,-5.6831 -1.51929,-6.3519 -0.92359,-0.6753 -0.92321,-0.8285 0.006,-2.6371 2.83464,-5.5149 10.06408,-14.3124 14.17381,-17.2481 l 1.56007,-1.1144 -1.11147,2.5126 c -1.3783,3.1159 -2.71308,11.0633 -3.04394,18.1239 l -0.25046,5.3446 -2.37732,2.0349 c -1.30752,1.1192 -2.37732,2.267 -2.37732,2.5506 0,0.2836 0.75046,0.9037 1.6677,1.3781 l 1.66769,0.8623 -1.54636,5.049 c -1.46553,4.7849 -1.6875,5.1391 -4.24583,6.7747 -1.4847,0.9492 -2.70423,1.8886 -2.71006,2.0875 -0.006,0.1989 0.76603,0.6833 1.71523,1.0765 0.9492,0.3932 1.72582,0.8581 1.72582,1.0333 0,0.1751 -0.63526,2.1589 -1.41168,4.4084 -0.77642,2.2495 -2.59696,8.6763 -4.04563,14.281708 -3.6953,14.2985 -3.32954,13.8602 -5.13769,6.1572 z m 100.256059,1.8523 c -0.58079,-0.8292 -1.39829,-1.117 -3.01204,-1.0604 -3.06596,0.1075 -4.40999,-1.7464 -4.80143,-6.6228 -0.28153,-3.50731 -0.21272,-3.76281 1.51058,-5.607608 1.55058,-1.6599 2.06793,-1.8825 3.66349,-1.5764 4.5152,0.8662 7.62178,1.9858 7.78351,2.805098 0.0951,0.4816 -0.3905,2.3948 -1.07903,4.25171 -0.68855,1.8568 -1.7055,4.6298 -2.25991,6.1623 -0.94767,2.6194 -1.05574,2.7181 -1.80517,1.6481 z m -52.19222,-4.722 c 3.66664,-13.085408 9.55156,-21.644608 20.57871,-29.930208 5.10381,-3.8349 7.19143,-4.7675 11.2925,-5.0449 2.6975,-0.1824 4.45546,0.1049 7.88566,1.2889 5.42349,1.8719 14.30366,5.996 13.00671,6.0406 -1.83898,0.063 -11.16784,5.1834 -13.98065,7.6734 l -2.84819,2.5214 -3.19217,-0.985 c -7.43467,-2.2942 -7.91098,-2.1375 -5.84122,1.9222 1.22218,2.3973 1.14014,2.5208 -2.0088,3.0243 -1.82952,0.2926 -3.08859,-0.024 -6.7764,-1.7048 -2.49116,-1.1352 -4.62651,-2.0641 -4.7452,-2.0641 -0.70601,0 -0.005,2.9272 1.16301,4.857 l 1.37294,2.2682 -2.38261,1.5166 c -1.31044,0.834098 -2.72626,1.935098 -3.14627,2.446598 -0.58542,0.7129 -1.09764,0.803 -2.19472,0.3859 -0.78709,-0.2993 -2.06737,-0.5441 -2.84506,-0.5441 -1.35537,0 -1.37695,0.057 -0.52063,1.3635 0.84978,1.29691 0.80032,1.45831 -1.01336,3.30781 -1.04871,1.0694 -2.6057,2.8504 -3.45998,3.9578 l -1.55323,2.0134 z m 51.69838,-12.048108 c -1.37122,-0.7286 -2.11413,-1.5925 -2.32909,-2.7085 -0.40434,-2.0992 0.29808,-5.4055 1.28076,-6.0286 2.30145,-1.4592 8.26175,0.8322 8.91287,3.4265 0.21791,0.8682 -0.11119,2.3414 -0.87363,3.9107 -1.07914,2.2213 -1.44433,2.515 -3.10034,2.4937 -1.03241,-0.013 -2.78317,-0.5055 -3.89057,-1.0938 z m 10.70431,-18.3414 c -0.74157,-1.1999 0.84139,-3.4926 5.15671,-7.4689 5.03626,-4.6406 10.83365,-8.7013 15.32562,-10.7345 3.86147,-1.7479 10.85898,-3.1816 15.52803,-3.1816 4.53122,0 11.52952,2.2472 15.28234,4.9072 1.49663,1.0608 5.05099,3.5252 7.89859,5.4764 6.17575,4.2317 7.05801,5.0095 9.43194,8.3151 l 1.82255,2.5379 -2.75088,-1.2695 c -2.37842,-1.0975 -3.80162,-1.2775 -10.51128,-1.3289 l -7.7604,-0.059 -1.35047,-3.5366 c -0.74275,-1.9452 -1.5377,-3.5367 -1.76654,-3.5367 -0.22884,0 -0.88208,1.5557 -1.45164,3.4571 -0.56956,1.9015 -1.20102,3.5572 -1.40324,3.6794 -0.20222,0.1223 -1.52969,0.3139 -2.94995,0.426 l -2.58229,0.2037 -1.28888,-4.0269 c -1.56962,-4.904 -3.06793,-8.3414 -3.63586,-8.3414 -0.23243,0 -0.59735,1.1654 -0.81097,2.5898 -0.2136,1.4245 -0.8481,3.9424 -1.40999,5.5955 -1.0158,2.9884 -1.03961,3.0091 -4.1784,3.6379 -1.73623,0.3478 -3.56606,0.7894 -4.06628,0.9814 -0.67341,0.2584 -1.21012,-0.3502 -2.06767,-2.3447 -0.637,-1.4816 -1.33944,-3.4169 -1.56097,-4.3008 -0.22153,-0.8839 -0.67846,-1.5152 -1.01539,-1.4029 -0.70324,0.2344 -2.59062,5.2844 -2.65715,7.1096 -0.0405,1.1124 -0.55349,1.2848 -5.65348,1.9002 -3.0849,0.3723 -6.4206,0.8159 -7.41267,0.9856 -0.99206,0.1698 -1.96468,0.048 -2.16138,-0.2699 z m -10.95016,-3.6708 c -3.31886,-1.7091 -8.16447,-3.3195 -12.41014,-4.1243 l -3.73927,-0.7088 -0.7036,-2.8451 c -0.82273,-3.3268 -2.45542,-7.1597 -3.04985,-7.1597 -0.22809,0 -0.54506,1.2297 -0.70437,2.7326 -0.15931,1.5029 -0.57415,3.4444 -0.92186,4.3145 -0.5358,1.3408 -0.96849,1.582 -2.83758,1.582 -1.21296,0 -2.67769,-0.3453 -3.25496,-0.7674 -1.09773,-0.8027 -1.95207,-4.5677 -2.01239,-8.8684 -0.0189,-1.3447 -0.18075,-2.4449 -0.35975,-2.4449 -1.10358,0 -2.7067,1.5018 -3.71687,3.4819 -1.33507,2.6169 -1.80646,2.5467 -5.13265,-0.7647 -1.82325,-1.8152 -1.97107,-2.2203 -1.82368,-4.9973 0.17156,-3.2322 -0.0572,-3.3283 -2.56603,-1.0778 -1.18201,1.0603 -1.24389,1.0332 -5.16853,-2.2629 -3.32542,-2.793 -8.57113,-8.6862 -8.12704,-9.1303 0.0703,-0.07 2.71253,0.6413 5.87166,1.5814 3.15913,0.94 7.29711,1.864 9.19551,2.0533 4.18433,0.4173 4.79856,0.8511 5.25613,3.7126 0.42756,2.6738 0.97582,2.8157 1.93478,0.5005 0.5894,-1.4229 1.04696,-1.7258 2.60726,-1.7258 2.80782,0 8.3283,1.8774 12.45004,4.2339 5.52795,3.1605 5.68627,3.3416 6.0566,6.9298 0.18268,1.77 0.5548,3.2181 0.82693,3.2181 0.27214,0 1.05924,-0.5644 1.74913,-1.2543 l 1.25433,-1.2543 4.35457,4.6107 c 5.50294,5.8266 8.04677,9.3968 7.58434,10.6446 -0.32209,0.8691 -0.55359,0.8505 -2.61271,-0.2099 z m 8.3102,-0.189 c 0.0464,-7.4988 4.51528,-26.2468 7.6933,-32.2747 4.14344,-7.8591 9.72078,-13.2618 16.00933,-15.5078 3.50853,-1.2532 9.28667,-1.6233 13.96718,-0.8946 3.30395,0.5144 20.63339,5.8247 20.24751,6.2045 -0.0621,0.061 -1.92508,0.2798 -4.13988,0.4857 -5.10553,0.4748 -10.33639,1.3629 -12.19922,2.0711 -1.28771,0.4896 -1.69468,0.2662 -3.73247,-2.0489 -3.48705,-3.9615 -4.305,-3.4288 -3.96062,2.5791 0.0964,1.6819 -0.16546,2.1792 -1.59035,3.0202 -2.42474,1.4311 -3.04045,1.2683 -4.94641,-1.308 -0.93079,-1.2581 -1.89246,-2.2874 -2.13703,-2.2874 -1.07499,0 -1.73287,2.5844 -1.37895,5.4171 0.37037,2.9643 0.36201,2.9844 -2.04405,4.918 l -2.41594,1.9415 -1.56601,-1.7527 c -0.86131,-0.9639 -1.69225,-2.1082 -1.84653,-2.5428 -0.61953,-1.7452 -1.30712,0.4028 -1.41197,4.4108 -0.0611,2.3342 -0.41877,4.837 -0.79491,5.5619 -2.51777,4.8516 -12.36337,22.1815 -12.99306,22.87 -0.65982,0.7214 -0.76894,0.5974 -0.75992,-0.863 z m -4.56689,-4.4378 c -5.24265,-11.2965 -7.25484,-15.3675 -9.68592,-19.5966 l -2.58437,-4.4956 1.54146,-1.609 1.54146,-1.6089 -3.10933,-1.262 c -2.92121,-1.1856 -3.23636,-1.5156 -5.20886,-5.4534 -1.15474,-2.3052 -2.09953,-4.4512 -2.09953,-4.7687 0,-0.3176 0.51775,-1.046 1.15055,-1.6187 0.6328,-0.5726 1.15054,-1.2438 1.15054,-1.4914 0,-0.2476 -1.27521,-1.1443 -2.8338,-1.9926 -2.81081,-1.5298 -2.8417,-1.5779 -3.80709,-5.9324 C 149.00135,13.287802 146.38076,5.8968 144.4179,2.7392 143.48135,1.2326 142.87762,0 143.07626,0 c 0.19865,0 1.80591,0.8086 3.57169,1.797 4.54902,2.5463 10.4677,7.5042 13.22533,11.078602 2.24852,2.9145 2.31897,3.128 1.55909,4.7242 -0.79805,1.6765 -0.64258,5.9863 0.21596,5.9863 0.2454,0 0.87022,-0.6471 1.3885,-1.4381 0.51829,-0.791 1.14374,-1.4382 1.38989,-1.4382 0.24615,0 1.57847,1.9877 2.96069,4.4171 l 2.51314,4.4171 -1.32552,2.3031 -1.32553,2.3032 1.29167,1.0459 c 0.71041,0.5753 1.89801,1.0459 2.6391,1.0459 1.19693,0 1.54565,0.6188 3.12192,5.5396 1.76997,5.5255 1.77151,5.5417 0.60229,6.3606 -1.55025,1.0859 -1.48044,1.8071 0.21612,2.2329 0.86532,0.2172 1.5302,0.9137 1.76492,1.8489 0.38342,1.5277 0.27627,21.986 -0.11515,21.986 -0.11793,0 -1.20558,-2.1357 -2.417,-4.746 z"
     style="fill:#118800;fill-opacity:1;stroke-width:0.57527244" />
</svg>
